custom-analysis
version=1
nRows=4
nColumns=146
inDegrees=no

This file contains tibia displacement and acting force.

Units are S.I. units (seconds, meters, Newtons, ...)
Angles are in degrees.

endheader
time	APT	SIT	knee_angle	aACL_R_force	pACL_R_force	aPCL_R_force	pPCL_R_force	aMCL_R_force	mMCL_R_force	pMCL_R_force	aLCL_R_force	mLCL_R_force	pLCL_R_force	aPCL_L_force	pPCL_L_force	aMCL_L_force	aLCL_L_force	aACL_R_length	pACL_R_length	aPCL_R_length	pPCL_R_length	aMCL_R_length	mMCL_R_length	pMCL_R_length	aLCL_R_length	mLCL_R_length	pLCL_R_length	aPCL_L_length	pPCL_L_length	aMCL_L_length	aLCL_L_length	aACL_R_strain	pACL_R_strain	aPCL_R_strain	pPCL_R_strain	aMCL_R_strain	mMCL_R_strain	pMCL_R_strain	aLCL_R_strain	mLCL_R_strain	pLCL_R_strain	aPCL_L_strain	pPCL_L_strain	aMCL_L_strain	aLCL_L_strain	femur_lat_meniscii_l.femur_lat_l.force.X	femur_lat_meniscii_l.femur_lat_l.force.Y	femur_lat_meniscii_l.femur_lat_l.force.Z	femur_lat_meniscii_l.femur_lat_l.torque.X	femur_lat_meniscii_l.femur_lat_l.torque.Y	femur_lat_meniscii_l.femur_lat_l.torque.Z	femur_lat_meniscii_l.meniscus_lat_l.force.X	femur_lat_meniscii_l.meniscus_lat_l.force.Y	femur_lat_meniscii_l.meniscus_lat_l.force.Z	femur_lat_meniscii_l.meniscus_lat_l.torque.X	femur_lat_meniscii_l.meniscus_lat_l.torque.Y	femur_lat_meniscii_l.meniscus_lat_l.torque.Z	femur_med_meniscii_l.femur_med_l.force.X	femur_med_meniscii_l.femur_med_l.force.Y	femur_med_meniscii_l.femur_med_l.force.Z	femur_med_meniscii_l.femur_med_l.torque.X	femur_med_meniscii_l.femur_med_l.torque.Y	femur_med_meniscii_l.femur_med_l.torque.Z	femur_med_meniscii_l.meniscus_med_l.force.X	femur_med_meniscii_l.meniscus_med_l.force.Y	femur_med_meniscii_l.meniscus_med_l.force.Z	femur_med_meniscii_l.meniscus_med_l.torque.X	femur_med_meniscii_l.meniscus_med_l.torque.Y	femur_med_meniscii_l.meniscus_med_l.torque.Z	femur_lat_meniscii_r.femur_lat_r.force.X	femur_lat_meniscii_r.femur_lat_r.force.Y	femur_lat_meniscii_r.femur_lat_r.force.Z	femur_lat_meniscii_r.femur_lat_r.torque.X	femur_lat_meniscii_r.femur_lat_r.torque.Y	femur_lat_meniscii_r.femur_lat_r.torque.Z	femur_lat_meniscii_r.meniscus_lat_r.force.X	femur_lat_meniscii_r.meniscus_lat_r.force.Y	femur_lat_meniscii_r.meniscus_lat_r.force.Z	femur_lat_meniscii_r.meniscus_lat_r.torque.X	femur_lat_meniscii_r.meniscus_lat_r.torque.Y	femur_lat_meniscii_r.meniscus_lat_r.torque.Z	femur_med_meniscii_r.femur_med_r.force.X	femur_med_meniscii_r.femur_med_r.force.Y	femur_med_meniscii_r.femur_med_r.force.Z	femur_med_meniscii_r.femur_med_r.torque.X	femur_med_meniscii_r.femur_med_r.torque.Y	femur_med_meniscii_r.femur_med_r.torque.Z	femur_med_meniscii_r.meniscus_med_r.force.X	femur_med_meniscii_r.meniscus_med_r.force.Y	femur_med_meniscii_r.meniscus_med_r.force.Z	femur_med_meniscii_r.meniscus_med_r.torque.X	femur_med_meniscii_r.meniscus_med_r.torque.Y	femur_med_meniscii_r.meniscus_med_r.torque.Z	femur_med_tibia_l.tibia_upper_l.force.X	femur_med_tibia_l.tibia_upper_l.force.Y	femur_med_tibia_l.tibia_upper_l.force.Z	femur_med_tibia_l.tibia_upper_l.torque.X	femur_med_tibia_l.tibia_upper_l.torque.Y	femur_med_tibia_l.tibia_upper_l.torque.Z	femur_med_tibia_l.femur_med_l.force.X	femur_med_tibia_l.femur_med_l.force.Y	femur_med_tibia_l.femur_med_l.force.Z	femur_med_tibia_l.femur_med_l.torque.X	femur_med_tibia_l.femur_med_l.torque.Y	femur_med_tibia_l.femur_med_l.torque.Z	femur_lat_tibia_l.tibia_upper_l.force.X	femur_lat_tibia_l.tibia_upper_l.force.Y	femur_lat_tibia_l.tibia_upper_l.force.Z	femur_lat_tibia_l.tibia_upper_l.torque.X	femur_lat_tibia_l.tibia_upper_l.torque.Y	femur_lat_tibia_l.tibia_upper_l.torque.Z	femur_lat_tibia_l.femur_lat_l.force.X	femur_lat_tibia_l.femur_lat_l.force.Y	femur_lat_tibia_l.femur_lat_l.force.Z	femur_lat_tibia_l.femur_lat_l.torque.X	femur_lat_tibia_l.femur_lat_l.torque.Y	femur_lat_tibia_l.femur_lat_l.torque.Z	femur_med_tibia_r.tibia_upper_r.force.X	femur_med_tibia_r.tibia_upper_r.force.Y	femur_med_tibia_r.tibia_upper_r.force.Z	femur_med_tibia_r.tibia_upper_r.torque.X	femur_med_tibia_r.tibia_upper_r.torque.Y	femur_med_tibia_r.tibia_upper_r.torque.Z	femur_med_tibia_r.femur_med_r.force.X	femur_med_tibia_r.femur_med_r.force.Y	femur_med_tibia_r.femur_med_r.force.Z	femur_med_tibia_r.femur_med_r.torque.X	femur_med_tibia_r.femur_med_r.torque.Y	femur_med_tibia_r.femur_med_r.torque.Z	femur_lat_tibia_r.tibia_upper_r.force.X	femur_lat_tibia_r.tibia_upper_r.force.Y	femur_lat_tibia_r.tibia_upper_r.force.Z	femur_lat_tibia_r.tibia_upper_r.torque.X	femur_lat_tibia_r.tibia_upper_r.torque.Y	femur_lat_tibia_r.tibia_upper_r.torque.Z	femur_lat_tibia_r.femur_lat_r.force.X	femur_lat_tibia_r.femur_lat_r.force.Y	femur_lat_tibia_r.femur_lat_r.force.Z	femur_lat_tibia_r.femur_lat_r.torque.X	femur_lat_tibia_r.femur_lat_r.torque.Y	femur_lat_tibia_r.femur_lat_r.torque.Z	femur_lat_meniscii_force_r	femur_med_meniscii_force_r	femur_lat_tibia_force_r	femur_med_tibia_force_r
      0.04043524	      0.00345580	      0.00174833	      5.28032729	     28.41544986	     32.48510288	      0.00000000	      0.00000000	      0.00000000	     -3.60964860	      8.98524805	      0.00000000	      0.00000000	      0.00000000	      0.00000000	      0.00000000	      0.00000001	      0.00000000	      0.03271796	      0.02671407	      0.02784381	      0.02816439	      0.05588469	      0.06039244	      0.06235011	      0.05466353	      0.05297493	      0.05091335	      0.01525851	      0.01651186	      0.06550154	      0.04489616	      0.05523089	      0.06605965	     -0.10456543	     -0.05766257	     -0.06900742	      0.01001673	      0.06167610	     -0.02346797	     -0.05937060	     -0.02730755	      0.00000079	     -0.32847694	      0.00000060	     -0.00000086	      2.76307435	     50.99597937	     -9.56042239	      5.21997485	     -0.02578839	      1.48581788	     -2.76307435	    -50.99597937	      9.56042239	     -1.74637766	      0.02558040	     -0.48301696	     -3.31599387	     20.97615968	     -3.40468921	      0.94473225	     -0.02138609	     -1.00501789	      3.31599387	    -20.97615968	      3.40468921	      0.28075727	      0.00368718	     -0.29758878	     95.03564022	    172.23210213	     25.52456978	    -14.96767390	      2.43726724	     39.97690916	    -95.03564022	   -172.23210213	    -25.52456978	      5.80039944	     -2.84753094	     -3.07605701	      8.22515759	    143.22960982	     24.33569111	     -7.08809785	     -0.11555143	      3.68220990	     -8.22515759	   -143.22960982	    -24.33569111	     -1.72820109	      0.02289148	     -0.15705439	      0.00000000	      0.00000000	      0.00000000	      0.00000000	      0.00000000	      0.00000000	      0.00000000	      0.00000000	      0.00000000	      0.00000000	      0.00000000	      0.00000000	      0.00000000	      0.00000000	      0.00000000	      0.00000000	      0.00000000	      0.00000000	      0.00000000	      0.00000000	      0.00000000	      0.00000000	      0.00000000	      0.00000000	     59.33394076	   -709.93418679	     49.82479496	    -13.48444897	     -1.43817802	     -1.18293411	    -59.33394076	    709.93418679	    -49.82479496	     35.16964578	      1.78185368	    -19.74401780	    -41.52390223	   -238.35174988	    -61.26838245	      8.47435362	     -0.88992397	     -2.32262105	     41.52390223	    238.35174988	     61.26838245	    -31.11350548	      0.58121941	     18.86698146	    198.36121995	    145.51494841	    249.57885691	    714.14954757
      0.04164336	      0.00358159	      0.00180791	      5.51109456	     35.49790267	     39.39641647	      0.00000000	      0.00000000	      0.00000000	     -3.49518368	      8.29288092	      0.00000000	      0.00000000	      0.00000000	      0.00000000	      0.00000000	      0.00000001	      0.00000000	      0.03274087	      0.02671907	      0.02782522	      0.02814034	      0.05590003	      0.06038561	      0.06231759	      0.05459104	      0.05289103	      0.05081453	      0.01525851	      0.01651186	      0.06550154	      0.04489616	      0.05596973	      0.06625915	     -0.10516313	     -0.05846737	     -0.06875193	      0.00990252	      0.06112223	     -0.02476287	     -0.06086044	     -0.02919544	      0.00000079	     -0.32847694	      0.00000060	     -0.00000086	      2.76307435	     50.99597937	     -9.56042239	      5.21997485	     -0.02578839	      1.48581788	     -2.76307435	    -50.99597937	      9.56042239	     -1.74637766	      0.02558040	     -0.48301696	     -3.31599387	     20.97615968	     -3.40468921	      0.94473225	     -0.02138609	     -1.00501789	      3.31599387	    -20.97615968	      3.40468921	      0.28075727	      0.00368718	     -0.29758878	    115.45096590	    174.50923122	     13.59391786	     -9.95698545	      2.90681300	     48.60161750	   -115.45096590	   -174.50923122	    -13.59391786	      5.37441792	     -3.36174560	     -3.84249859	     21.92910961	    140.65023005	     14.57617434	     -3.02374711	     -0.41170886	      9.41941559	    -21.92910961	   -140.65023005	    -14.57617434	     -2.05814084	      0.29261135	     -0.62476440	      0.00000000	      0.00000000	      0.00000000	      0.00000000	      0.00000000	      0.00000000	      0.00000000	      0.00000000	      0.00000000	      0.00000000	      0.00000000	      0.00000000	      0.00000000	      0.00000000	      0.00000000	      0.00000000	      0.00000000	      0.00000000	      0.00000000	      0.00000000	      0.00000000	      0.00000000	      0.00000000	      0.00000000	     12.67076246	   -687.77877614	     87.28769721	    -14.74040560	     -0.86271182	     -2.82321669	    -12.67076246	    687.77877614	    -87.28769721	     50.71084928	      1.14645050	     -0.16258211	    -65.90412742	   -268.05577314	    -54.56951796	      8.95275969	     -1.53486257	     -3.33456492	     65.90412742	    268.05577314	     54.56951796	    -28.91374436	      1.14760353	     29.34392604	    209.68355184	    143.09380811	    281.38067421	    693.41137517
      0.04285149	      0.00371920	      0.00186780	      5.75169347	     31.87617997	     35.13216910	      0.00000000	      0.00000000	      0.00000000	     -3.34388871	      7.10908743	      0.00000000	      0.00000000	      0.00000000	      0.00000000	      0.00000000	      0.00000001	      0.00000000	      0.03277422	      0.02673447	      0.02780158	      0.02811128	      0.05591618	      0.06037872	      0.06228421	      0.05451706	      0.05280532	      0.05071327	      0.01525851	      0.01651186	      0.06550154	      0.04489616	      0.05704522	      0.06687390	     -0.10592353	     -0.05943960	     -0.06848289	      0.00978732	      0.06055396	     -0.02608456	     -0.06238219	     -0.03113006	      0.00000079	     -0.32847694	      0.00000060	     -0.00000086	      2.76307435	     50.99597937	     -9.56042239	      5.21997485	     -0.02578839	      1.48581788	     -2.76307435	    -50.99597937	      9.56042239	     -1.74637766	      0.02558040	     -0.48301696	     -3.31599387	     20.97615968	     -3.40468921	      0.94473225	     -0.02138609	     -1.00501789	      3.31599387	    -20.97615968	      3.40468921	      0.28075727	      0.00368718	     -0.29758878	    101.09625990	    185.13473217	     23.06075775	    -14.21351678	      2.57177771	     42.52471380	   -101.09625990	   -185.13473217	    -23.06075775	      6.04012962	     -3.00485452	     -3.21653314	     12.43977056	    141.08133169	     20.90834542	     -5.68884537	     -0.20713273	      5.35346594	    -12.43977056	   -141.08133169	    -20.90834542	     -1.81875341	      0.10175130	     -0.17562156	      0.00000000	      0.00000000	      0.00000000	      0.00000000	      0.00000000	      0.00000000	      0.00000000	      0.00000000	      0.00000000	      0.00000000	      0.00000000	      0.00000000	      0.00000000	      0.00000000	      0.00000000	      0.00000000	      0.00000000	      0.00000000	      0.00000000	      0.00000000	      0.00000000	      0.00000000	      0.00000000	      0.00000000	     52.72959543	   -682.56220255	     63.57993824	    -13.61401441	     -1.34799479	     -0.83535827	    -52.72959543	    682.56220255	    -63.57993824	     40.47463124	      1.72248503	    -17.42097548	    -51.19520170	   -291.71894755	    -69.23756369	     10.15351348	     -1.14754118	     -2.72960883	     51.19520170	    291.71894755	     69.23756369	    -35.65107004	      0.76230601	     23.20596405	    212.19595041	    143.16371380	    304.16234688	    687.54198354
      0.04405961	      0.00384947	      0.00192910	      5.99893194	     36.18616659	     39.16108307	      0.00000000	      0.00000000	      0.00000000	     -3.75041225	      5.71779501	      0.00000000	      0.00000000	      0.00000000	      0.00000000	      0.00000000	      0.00000001	      0.00000000	      0.03280033	      0.02674219	      0.02778576	      0.02808877	      0.05593330	      0.06037189	      0.06224968	      0.05444750	      0.05272328	      0.05061515	      0.01525851	      0.01651186	      0.06550154	      0.04489616	      0.05788732	      0.06718175	     -0.10643212	     -0.06019291	     -0.06819764	      0.00967308	      0.05996593	     -0.02732712	     -0.06383894	     -0.03300463	      0.00000079	     -0.32847694	      0.00000060	     -0.00000086	      2.76307435	     50.99597937	     -9.56042239	      5.21997485	     -0.02578839	      1.48581788	     -2.76307435	    -50.99597937	      9.56042239	     -1.74637766	      0.02558040	     -0.48301696	     -3.31599387	     20.97615968	     -3.40468921	      0.94473225	     -0.02138609	     -1.00501789	      3.31599387	    -20.97615968	      3.40468921	      0.28075727	      0.00368718	     -0.29758878	    113.48602748	    190.54980407	     14.43408347	    -10.68910628	      2.86202186	     47.76098051	   -113.48602748	   -190.54980407	    -14.43408347	      5.84447252	     -3.31730301	     -3.66036452	     18.71625309	    136.44638873	     14.32081294	     -3.00909036	     -0.34035184	      7.95906626	    -18.71625309	   -136.44638873	    -14.32081294	     -1.98829451	      0.22907113	     -0.36758583	      0.00000000	      0.00000000	      0.00000000	      0.00000000	      0.00000000	      0.00000000	      0.00000000	      0.00000000	      0.00000000	      0.00000000	      0.00000000	      0.00000000	      0.00000000	      0.00000000	      0.00000000	      0.00000000	      0.00000000	      0.00000000	      0.00000000	      0.00000000	      0.00000000	      0.00000000	      0.00000000	      0.00000000	     29.26231416	   -660.98246507	     85.83956314	    -14.22188831	     -1.03987603	     -1.50563902	    -29.26231416	    660.98246507	    -85.83956314	     49.53907013	      1.40619687	     -7.71308008	    -67.03126501	   -318.92958385	    -64.50357262	     10.65160325	     -1.57365051	     -3.36279992	     67.03126501	    318.92958385	     64.50357262	    -34.23283809	      1.13504739	     30.03672574	    222.25356921	    138.46660539	    332.21977789	    667.17503908
